# Blender v2.92.0 OBJ File: 'Dice_10.blend'
# www.blender.org
mtllib Dice_10.mtl
o Dice_d10_Dice_d10_LP
v -0.309600 0.114700 -0.945900
v -0.024000 1.000000 -0.073200
v 0.308400 -0.112200 -0.946600
v 0.062200 1.000000 -0.045400
v 0.804300 0.114200 -0.587100
v -0.806900 -0.112600 -0.583800
v -0.077100 1.000000 0.000200
v -0.996600 0.113400 0.002200
v -0.805600 -0.114200 0.587800
v -0.023600 1.000000 0.073300
v -0.306300 0.112200 0.949700
v 0.307600 -0.114600 0.949000
v 0.062400 1.000000 0.045200
v 0.808200 0.112700 0.584500
v 0.023800 -1.000000 0.075700
v 0.077000 -1.000000 0.002400
v 0.996600 -0.113400 0.002400
v -0.062300 -1.000000 0.047700
v 0.023800 -1.000000 -0.070800
v -0.062300 -1.000000 -0.042800
vt 0.750415 0.750377
vt 0.845041 0.629529
vt 0.999713 0.634133
vt 0.783595 0.041865
vt 0.783595 0.063154
vt 0.763350 0.069715
vt 0.250574 0.436629
vt 0.345744 0.315114
vt 0.500082 0.319704
vt 0.763362 0.034712
vt 0.750856 0.017513
vt 0.763376 0.000287
vt 0.000287 0.749985
vt 0.094813 0.629278
vt 0.249792 0.633885
vt 0.500401 0.004867
vt 0.500401 0.305358
vt 0.481136 0.314364
vt 0.345422 0.629929
vt 0.499760 0.634511
vt 0.499760 0.934494
vt 0.500655 0.435962
vt 0.595282 0.315114
vt 0.750469 0.319705
vt 0.230703 0.628705
vt 0.094811 0.315114
vt 0.249998 0.319714
vt 0.595696 0.629529
vt 0.749842 0.934319
vt 0.500655 0.750891
vt 0.596136 0.000287
vt 0.750283 0.004842
vt 0.750283 0.305354
vt 0.095328 0.000287
vt 0.250001 0.305532
vt 0.000287 0.121648
vt 0.999713 0.933940
vt 0.980424 0.942947
vt 0.750856 0.052499
vt 0.763368 0.035285
vt 0.500082 0.620363
vt 0.480783 0.629356
vt 0.783622 0.006868
vt 0.783622 0.028162
vt 0.249792 0.933711
vt 0.230506 0.942724
vt 0.250574 0.121396
vt 0.345421 0.000287
vt 0.480476 0.943496
vt 0.250574 0.751037
vt 0.750469 0.619954
vt 0.731199 0.628956
vt 0.249998 0.619694
vt 0.000287 0.435823
vt 0.749842 0.634087
vt 0.730549 0.943331
vt 0.731009 0.314355
vt 0.500974 0.121809
vt 0.250001 0.004870
vt 0.230721 0.314541
vn 0.2351 0.6428 -0.7291
vn 0.2351 0.6427 -0.7291
vn 0.0000 -1.0000 0.0000
vn -0.6187 0.6428 0.4516
vn -0.6188 0.6427 0.4516
vn -0.6188 0.6428 0.4516
vn 0.0000 1.0000 0.0000
vn 0.6197 -0.6428 0.4503
vn 0.2382 0.6428 0.7281
vn 0.2383 0.6428 0.7280
vn 0.2381 0.6427 0.7282
vn -0.2366 -0.6428 0.7286
vn -0.2368 -0.6427 0.7286
vn 0.6198 -0.6428 -0.4503
vn 0.6199 -0.6426 -0.4503
vn 0.7660 0.6428 -0.0017
vn -0.6207 0.6428 -0.4489
vn -0.6207 0.6428 -0.4490
vn -0.7660 -0.6428 -0.0000
vn -0.7660 -0.6428 -0.0001
vn -0.2368 -0.6428 -0.7286
vn -0.2368 -0.6428 -0.7285
vn -0.2367 -0.6428 -0.7286
vn 0.2351 0.6428 -0.7290
vn -0.6187 0.6428 0.4517
vn -0.2369 -0.6427 0.7286
vn -0.2367 -0.6428 0.7286
vn 0.6197 -0.6428 -0.4504
vn 0.6197 -0.6428 -0.4503
vn -0.6208 0.6428 -0.4489
vn -0.6206 0.6428 -0.4490
vn -0.2369 -0.6429 -0.7284
usemtl M_d10
s 1
f 5/1/1 3/2/2 1/3/1
f 16/4/3 15/5/3 18/6/3
f 8/7/4 9/8/5 11/9/6
f 10/10/7 13/11/7 4/12/7
f 17/13/8 14/14/8 12/15/8
f 14/16/9 13/17/10 10/18/11
f 11/19/12 9/20/12 18/21/13
f 3/22/14 5/23/15 17/24/14
f 13/25/16 17/26/16 5/27/16
f 6/28/17 7/29/17 1/30/18
f 8/31/19 6/32/20 20/33/19
f 1/34/21 19/35/22 6/36/23
f 1/3/1 2/37/24 4/38/24
f 4/38/24 5/1/1 1/3/1
f 18/6/3 20/39/3 16/4/3
f 20/39/3 19/40/3 16/4/3
f 11/9/6 10/41/4 8/7/4
f 10/41/4 7/42/25 8/7/4
f 4/12/7 2/43/7 10/10/7
f 2/43/7 7/44/7 10/10/7
f 15/45/8 16/46/8 12/15/8
f 16/46/8 17/13/8 12/15/8
f 11/47/10 12/48/10 10/18/11
f 12/48/10 14/16/9 10/18/11
f 18/21/13 15/49/26 12/50/27
f 12/50/27 11/19/12 18/21/13
f 17/24/14 16/51/28 19/52/29
f 19/52/29 3/22/14 17/24/14
f 5/27/16 4/53/16 13/25/16
f 13/25/16 14/54/16 17/26/16
f 8/55/30 7/29/17 6/28/17
f 7/29/17 2/56/31 1/30/18
f 20/33/19 18/57/19 9/58/19
f 9/58/19 8/31/19 20/33/19
f 3/59/22 19/35/22 1/34/21
f 19/35/22 20/60/32 6/36/23
